# xmcd
#
# Track frame offsets:
#	150
#	21247
#	37312
#	51408
#	64771
#	81376
#	94842
#	117086
#	134432
#	158059
#	177747
#	195796
#	209739
#	224067
#	242855
#
# Disc length: 3468 seconds
#
# Revision: 2
# Processed by: cddbd v1.5.2PL0 Copyright (c) Steve Scherf et al.
# Submitted via: EasyCDDAExtractor 15.3.0.1
#
DISCID=eb0d8a0f
DTITLE=Yuri - 15 Exitos
DYEAR=2002
DGENRE=Latin
TTITLE0=Detras De Mi Ventana
TTITLE1=El Apagon (Ver. Radio Mix)
TTITLE2=Embrujada
TTITLE3=Hola
TTITLE4=Me Tienes Que Querer
TTITLE5=Hombres Al Borde De Un Ataque De Celos
TTITLE6=Quien Eres Tu (Quem E Voce) (Love Will Lead You Back)
TTITLE7=No Puedo Mas
TTITLE8=Todo Mi Corazon
TTITLE9=Amiga Mia
TTITLE10=Imposible Amarte Como Yo
TTITLE11=Dame Un Beso
TTITLE12=Fascinacion
TTITLE13=Poligamia
TTITLE14=Quiero Volver A Empezar
EXTD=
EXTT0=
EXTT1=
EXTT2=
EXTT3=
EXTT4=
EXTT5=
EXTT6=
EXTT7=
EXTT8=
EXTT9=
EXTT10=
EXTT11=
EXTT12=
EXTT13=
EXTT14=
PLAYORDER=
